<svg xmlns="http://www.w3.org/2000/svg" viewBox="0 0 6935.4 1020.9" width="6935.4" height="1020.9">
  <title>MéTRIK valida · contornos</title>
  <g fill="#F3F1EC">
  <path d="M49.882858991622925 819.1209435462952 88.94535899162292 115.99594354629517H333.8277339935303L476.17173194885254 717.3632979393005H458.55453610420227L601.3282239437103 115.99594354629517H846.4840352535248L885.5465352535248 819.1209435462952H738.7889921665192L707.3436677455902 223.41763973236084H708.8085114955902L559.9606037139893 819.1209435462952H375.62504410743713L226.6208827495575 223.41763973236084H228.0857264995575L196.64040207862854 819.1209435462952Z"/>
  <path d="M1244.589775800705 831.9334387779236Q1167.2069728374481 831.9334387779236 1105.4394245147705 798.10531437397Q1043.671876192093 764.2771899700165 1007.5976848602295 702.0994573831558Q971.5234935283661 639.9217247962952 971.5234935283661 554.8436045646667Q971.5234935283661 470.37094831466675 1006.9140940904617 408.4959477186203Q1042.3046946525574 346.62094712257385 1103.7499755620956 312.7928227186203Q1165.195256471634 278.96469831466675 1243.632733821869 278.96469831466675Q1287.2655391693115 278.96469831466675 1331.9627940654755 292.2557145357132Q1376.6600489616394 305.54673075675964 1414.169803261757 339.05258774757385Q1451.6795575618744 372.55844473838806 1474.560409784317 432.25570023059845Q1497.4412620067596 491.95295572280884 1497.4412620067596 584.5505893230438H1064.9998784065247V501.73816084861755H1367.9102659225464L1352.4024188518524 527.5780260562897Q1348.593831062317 474.92170333862305 1333.0859988927841 442.63650476932526Q1317.5781667232513 410.35130620002747 1293.5253977775574 395.65402269363403Q1269.4726288318634 380.9567391872406 1239.706963300705 380.9567391872406Q1200.9764611721039 380.9567391872406 1175.21470785141 402.93917059898376Q1149.452954530716 424.92160201072693 1136.581838130951 464.1989767551422Q1123.710721731186 503.4763514995575 1123.710721731186 555.6053221225739Q1123.710721731186 633.730411529541 1153.1931906938553 679.1015416383743Q1182.6756596565247 724.4726717472076 1243.4960305690765 724.4726717472076Q1283.3203077316284 724.4726717472076 1311.904326081276 704.0429562330246Q1340.4883444309235 683.6132407188416 1355.6641340255737 641.5819525718689L1487.3631298542023 675.2147376537323Q1468.5935974121094 729.5897006988525 1431.1131536960602 764.2478942871094Q1393.632709980011 798.9060878753662 1345.009684562683 815.4197633266449Q1296.3866591453552 831.9334387779236 1244.589775800705 831.9334387779236ZM1259.726494550705 236.40605807304382 1181.9140911102295 192.20688939094543 1273.7890779972076 0.0 1390.1170194149017 73.20299744606018Z"/>
  <path d="M1777.3828506469727 819.1209435462952V243.49570274353027H1528.9258062839508V115.99594354629517H2177.5974333286285V243.49570274353027H1928.1638264656067V819.1209435462952Z"/>
  <path d="M2266.679733991623 819.1209435462952V115.99594354629517H2598.183363676071Q2849.159896373749 115.99594354629517 2849.159896373749 319.37476992607117Q2849.159896373749 523.1246948242188 2580.312341451645 523.1246948242188H2417.460709810257V819.1209435462952ZM2690.7617151737213 819.1209435462952 2488.6524081230164 482.3044538497925H2655.527114868164L2860.097348690033 819.1209435462952ZM2417.460709810257 406.0155153274536H2588.8865292072296Q2641.798014505 406.0155153274536 2670.3423684156396 383.8649762399269Q2698.8867223262787 361.71443715240014 2698.8867223262787 320.01930475234985Q2698.8867223262787 278.04792640555615 2669.785112142563 255.57652472430823Q2640.683501958847 233.1051230430603 2586.4256024360657 233.1051230430603H2417.460709810257Z"/>
  <path d="M2929.0429651737213 819.1209435462952V694.7071254253387H3026.406228542328V240.4097616672516H2929.0429651737213V115.99594354629517H3274.5504677295685V240.4097616672516H3177.187204360962V694.7071254253387H3274.5504677295685V819.1209435462952Z"/>
  <path d="M3385.332077741623 819.1209435462952V115.99594354629517H3536.113053560257V403.61329913139343L3825.0781297683716 115.99594354629517H4011.152058839798L3751.1910796165466 374.4139075279236L4029.589504003525 819.1209435462952H3855.878859758377L3646.8943655490875 477.1481156349182L3536.113053560257 587.5387787818909V819.1209435462952Z"/>
  <path d="M4427.08984375 819.1209435462952 4228.84765625 291.77719354629517H4319.66796875L4487.1484375 772.7342247962952H4471.5234375L4638.02734375 291.77719354629517H4728.84765625L4531.58203125 819.1209435462952Z"/>
  <path d="M4951.015625 830.8396935462952Q4898.28125 830.8396935462952 4859.462890625 810.5760216712952Q4820.64453125 790.3123497962952 4799.6484375 755.1560997962952Q4778.65234375 719.9998497962952 4778.65234375 675.5662560462952Q4778.65234375 628.2029747962952 4806.484375 588.1639122962952Q4834.31640625 548.1248497962952 4892.666015625 523.9549279212952Q4951.015625 499.78500604629517 5042.32421875 499.78500604629517H5130.21484375L5121.42578125 508.57406854629517V479.76547479629517Q5121.42578125 416.28891229629517 5096.03515625 382.35336542129517Q5070.64453125 348.41781854629517 5011.07421875 348.41781854629517Q4954.921875 348.41781854629517 4924.6484375 377.47055292129517Q4894.375 406.52328729629517 4892.421875 455.35141229629517L4800.13671875 434.35531854629517Q4804.53125 391.87484979629517 4832.607421875 356.96274042129517Q4860.68359375 322.05063104629517 4907.802734375 301.05453729629517Q4954.921875 280.05844354629517 5016.93359375 280.05844354629517Q5080.8984375 280.05844354629517 5121.181640625 304.22836542129517Q5161.46484375 328.39828729629517 5180.5078125 373.80844354629517Q5199.55078125 419.21859979629517 5199.55078125 483.18344354629517V723.9060997962952Q5199.55078125 740.0193810462952 5204.189453125 745.3904747962952Q5208.828125 750.7615685462952 5223.96484375 750.7615685462952H5253.75V819.1209435462952H5201.50390625Q5168.30078125 819.1209435462952 5145.83984375 798.3689904212952Q5123.37890625 777.6170372962952 5123.37890625 745.8787560462952V708.7693810462952H5135.5859375Q5127.7734375 729.2771935462952 5113.125 750.5174279212952Q5098.4765625 771.7576622962952 5076.015625 790.0682091712952Q5053.5546875 808.3787560462952 5022.548828125 819.6092247962952Q4991.54296875 830.8396935462952 4951.015625 830.8396935462952ZM4969.5703125 762.4803185462952Q5010.09765625 762.4803185462952 5044.765625 742.4607872962952Q5079.43359375 722.4412560462952 5100.673828125 679.7166466712952Q5121.9140625 636.9920372962952 5121.9140625 568.6326622962952V564.2381310462952H5039.39453125Q4974.453125 564.2381310462952 4937.099609375 581.3279747962952Q4899.74609375 598.4178185462952 4884.12109375 623.5643029212952Q4868.49609375 648.7107872962952 4868.49609375 673.6131310462952Q4868.49609375 698.5154747962952 4879.7265625 718.5350060462952Q4890.95703125 738.5545372962952 4913.41796875 750.5174279212952Q4935.87890625 762.4803185462952 4969.5703125 762.4803185462952Z"/>
  <path d="M5444.1796875 819.1209435462952Q5412.9296875 819.1209435462952 5389.4921875 798.3689904212952Q5366.0546875 777.6170372962952 5366.0546875 745.8787560462952V86.69906854629517H5448.0859375V723.9060997962952Q5448.0859375 740.0193810462952 5452.724609375 745.3904747962952Q5457.36328125 750.7615685462952 5472.5 750.7615685462952H5523.76953125V819.1209435462952Z"/>
  <path d="M5632.65625 819.1209435462952V291.77719354629517H5714.6875V819.1209435462952ZM5673.671875 203.39828729629517Q5645.3515625 203.39828729629517 5625.33203125 183.37875604629517Q5605.3125 163.35922479629517 5605.3125 135.03891229629517Q5605.3125 106.23031854629517 5625.33203125 86.45492792129517Q5645.3515625 66.67953729629517 5673.671875 66.67953729629517Q5702.48046875 66.67953729629517 5722.255859375 86.45492792129517Q5742.03125 106.23031854629517 5742.03125 135.03891229629517Q5742.03125 163.35922479629517 5722.255859375 183.37875604629517Q5702.48046875 203.39828729629517 5673.671875 203.39828729629517Z"/>
  <path d="M6052.578125 830.8396935462952Q5988.61328125 830.8396935462952 5939.541015625 797.1482872962952Q5890.46875 763.4568810462952 5863.125 701.4451622962952Q5835.78125 639.4334435462952 5835.78125 554.9607872962952Q5835.78125 470.48813104629517 5863.369140625 408.72055292129517Q5890.95703125 346.95297479629517 5939.78515625 313.50570917129517Q5988.61328125 280.05844354629517 6052.578125 280.05844354629517Q6104.3359375 280.05844354629517 6155.1171875 305.93734979629517Q6205.8984375 331.81625604629517 6231.77734375 393.33969354629517L6222.5 397.24594354629517V86.69906854629517H6304.53125V819.1209435462952H6227.3828125V709.2576622962952L6229.82421875 717.0701622962952Q6208.33984375 774.6873497962952 6158.53515625 802.7635216712952Q6108.73046875 830.8396935462952 6052.578125 830.8396935462952ZM6074.0625 762.4803185462952Q6115.56640625 762.4803185462952 6149.74609375 740.9959435462952Q6183.92578125 719.5115685462952 6204.43359375 673.8572716712952Q6224.94140625 628.2029747962952 6224.94140625 556.9139122962952Q6224.94140625 450.46859979629517 6180.99609375 399.44320917129517Q6137.05078125 348.41781854629517 6075.0390625 348.41781854629517Q6009.609375 348.41781854629517 5967.6171875 402.37289667129517Q5925.625 456.32797479629517 5925.625 556.9139122962952Q5925.625 654.5701622962952 5966.15234375 708.5252404212952Q6006.6796875 762.4803185462952 6074.0625 762.4803185462952Z"/>
  <path d="M6598.96484375 830.8396935462952Q6546.23046875 830.8396935462952 6507.412109375 810.5760216712952Q6468.59375 790.3123497962952 6447.59765625 755.1560997962952Q6426.6015625 719.9998497962952 6426.6015625 675.5662560462952Q6426.6015625 628.2029747962952 6454.43359375 588.1639122962952Q6482.265625 548.1248497962952 6540.615234375 523.9549279212952Q6598.96484375 499.78500604629517 6690.2734375 499.78500604629517H6778.1640625L6769.375 508.57406854629517V479.76547479629517Q6769.375 416.28891229629517 6743.984375 382.35336542129517Q6718.59375 348.41781854629517 6659.0234375 348.41781854629517Q6602.87109375 348.41781854629517 6572.59765625 377.47055292129517Q6542.32421875 406.52328729629517 6540.37109375 455.35141229629517L6448.0859375 434.35531854629517Q6452.48046875 391.87484979629517 6480.556640625 356.96274042129517Q6508.6328125 322.05063104629517 6555.751953125 301.05453729629517Q6602.87109375 280.05844354629517 6664.8828125 280.05844354629517Q6728.84765625 280.05844354629517 6769.130859375 304.22836542129517Q6809.4140625 328.39828729629517 6828.45703125 373.80844354629517Q6847.5 419.21859979629517 6847.5 483.18344354629517V723.9060997962952Q6847.5 740.0193810462952 6852.138671875 745.3904747962952Q6856.77734375 750.7615685462952 6871.9140625 750.7615685462952H6901.69921875V819.1209435462952H6849.453125Q6816.25 819.1209435462952 6793.7890625 798.3689904212952Q6771.328125 777.6170372962952 6771.328125 745.8787560462952V708.7693810462952H6783.53515625Q6775.72265625 729.2771935462952 6761.07421875 750.5174279212952Q6746.42578125 771.7576622962952 6723.96484375 790.0682091712952Q6701.50390625 808.3787560462952 6670.498046875 819.6092247962952Q6639.4921875 830.8396935462952 6598.96484375 830.8396935462952ZM6617.51953125 762.4803185462952Q6658.046875 762.4803185462952 6692.71484375 742.4607872962952Q6727.3828125 722.4412560462952 6748.623046875 679.7166466712952Q6769.86328125 636.9920372962952 6769.86328125 568.6326622962952V564.2381310462952H6687.34375Q6622.40234375 564.2381310462952 6585.048828125 581.3279747962952Q6547.6953125 598.4178185462952 6532.0703125 623.5643029212952Q6516.4453125 648.7107872962952 6516.4453125 673.6131310462952Q6516.4453125 698.5154747962952 6527.67578125 718.5350060462952Q6538.90625 738.5545372962952 6561.3671875 750.5174279212952Q6583.828125 762.4803185462952 6617.51953125 762.4803185462952Z"/>
  </g>
  <rect x="0" y="951.9" width="6935.4" height="69.0" rx="34.5" fill="#6FB89D"/>
</svg>
